<svg xmlns="http://www.w3.org/2000/svg" viewBox="0 0 38.247 34.006">
  <path
    fill="#555659"
    d="M13.288 20.577l10.143.857s3.714 4.286 3.571 5.215c-.143.928.857 5.357-1 6.285-1.857.929-7.714-1-8.643-1.214-.928-.214-3.928 1.214-5.928-1.357-2-2.714-.5-1.072-.5-2.429-.143-1.357 2.357-7.357 2.357-7.357z"
  />
  <path
    fill="#C3C2CE"
    d="M25.647 20.506c-.286.07-.429.142-.429.214 0 .214.286.071 1.214.5-1.251.363-2.56.484-3.857.357.162-.317.282-.653.357-1a1.34 1.34 0 00.143-.571c1-.143.572-.286 1.643-.43 0-.07.429-.07.429-.142-.143-.071.643-.214.5-.214a4.365 4.365 0 01-.429-.286 10.508 10.508 0 005-5.786c-2.286-.357-3.214-1.142-3.571-2.785a4.836 4.836 0 00-4.429 1.285c-.071-.357-.071-.642-.143-1-1.071 1.715-1.357 2-2.071 2.143a13.527 13.527 0 01-1.214-3.857c-.358 1.643-.358 2.643-1.072 4.072-.643-.143-1.214-.715-2.286-2.358a5.603 5.603 0 00-.142 1 4.343 4.343 0 00-4.215-1c-.357 1.643-.357 2.286-2.643 2.715.929 2.571 2.215 4.357 4.572 5.643-.2.124-.417.22-.643.285-.143.072-.214.215-.357.286 0 .071-.572-.286-.572-.214.929.143 2 .5 2.929.714.09.178.138.373.143.571.075.348.195.684.357 1a10.264 10.264 0 01-3.857-.357c1.214-.143 1.214-.285 1.214-.5 0-.071 0-.285-.357-.357-4.072-.428-5.857-3.714-6.714-5.143.857.357 1.285.643 1.428.429.143-.214.143-.286-.143-.5-.857-.857-1.285-3.643-1.428-4.857.571.214 1.571.714 2.5.428 1.143-.357 2.071-1.357 2.714-3 .072 0 .143.072.214.072l.215-.429a.607.607 0 000-.5 11.559 11.559 0 01-.786-3.786c.067-.505.163-1.005.286-1.5.785.385 1.47.948 2 1.643.29.351.6.685.928 1 .5.5 1.429.715 1.572 0 .071-.214-.143-.428-.286-.643a.072.072 0 01-.071-.071c.785-.286 2.642-.929 4.214-.571h.214c.072 0 .143.07.214 0a9.243 9.243 0 014.572.214l.357.571c-.143.215-.5.429-.429.572.215.285.286.428.786-.143.289-.375.599-.732.929-1.072a7.907 7.907 0 012.714-2c.071.429.214 1.786.214 2.143a8.943 8.943 0 01-.785 3.572c-.072.143-.358.357-.286.571.071.214 0 0 .071.143.072 0 .286.143.357.143l-.071.143c.643 1.643 1.5 2.357 2.643 2.714a4.235 4.235 0 002.786-.357c-.143 1.143-1.072 4.143-2 5.071-.215.215-.215.429-.143.5.071.072.785-.285 1.714-.643-.643 2-3.357 4.858-6.714 5.358z"
  />
  <path
    fill="#FFF"
    d="M32.36 12.506c-.19.409-.519.737-.928.928V12.15c-1.286.142-3.5.285-3.786-2.715h-.071a4.121 4.121 0 00-1.857-.643c-.214 0-.429-.071-.572-.071l.5-.857s-2.928-.143-4.5 1.571c-.214.215 0-1.071 0-1.071a6.164 6.164 0 00-2.071 1.071l-.286 1.072-.285-1.072a6.165 6.165 0 00-2.072-1.071s.214 1.214 0 1.071c-1.643-1.714-4.5-1.571-4.5-1.571l.5.857a1.572 1.572 0 00-.571.071 6.43 6.43 0 00-1.857.643h-.072c-.286 3-2.5 2.857-3.786 2.715v1.285a1.58 1.58 0 01-.928-.928l-.072.357.072.428c1.928 4.215 3.928 4.858 7 5.572l.928.071 1.215.643.143.857c.285 1.072.714 1.357 1.642 2.072l.358.285 1.07-.571 1.144-.143 1.143.143.857.429.428.142a4.286 4.286 0 001.786-2.357l.143-.857 1.214-.643.929-.071c3.071-.786 5.357-1.857 7.214-6.143l-.071-.214z"
  />
  <path
    fill="#1E1E40"
    d="M18.148 18.22a1.906 1.906 0 011.643.072.714.714 0 01.214 1.214l-.072.071c-.857 1.143-1.428.857-2.214-.214a.62.62 0 01.214-.929c0-.142.072-.142.215-.214z"
  />
  <path
    fill="#1E1E40"
    d="M32.576 14.577c-.214.071-.429.214-.643.286a15.088 15.088 0 001.214-4.858l.072-.642-.5.357a3.572 3.572 0 01-2.572.428c-.928-.285-1.785-1.143-2.357-2.643v-.071a.263.263 0 01.072-.214c.34-.74.626-1.505.857-2.286a5.714 5.714 0 00-.143-4.071c-.429-.929-.429-.929-1.429-.715a7.557 7.557 0 00-3.642 2.286.615.615 0 01-.429.214 7.857 7.857 0 00-4.214-.428h-.143a7.857 7.857 0 00-4.214.428.615.615 0 01-.429-.214A8.129 8.129 0 0010.433.148c-1-.285-1-.214-1.428.715a5.557 5.557 0 00-.286 4.142c.214.786.571 1.429.857 2.286a.263.263 0 00.071.214v.072C9.076 9.005 8.362 9.934 7.29 10.22A3.4 3.4 0 014.72 9.79l-.5-.357.214.571a15.086 15.086 0 001.214 4.858c-.214-.072-.428-.215-.642-.286l-.786-.357.357.785c.071.215 2.071 4.358 5.929 5.643-.358.072-.715.072-1.072.143l-1 .143.929.5c1.525.5 3.11.788 4.714.857a5.555 5.555 0 001.143-.143c.152.225.346.42.571.572.16.107.327.202.5.285h.215l.642-.357c.116.055.236.103.358.143a2.858 2.858 0 002.428 0l.357-.143.643.357h.214c.187-.054.359-.152.5-.285.209-.172.4-.364.572-.572.375.087.758.135 1.143.143a18.257 18.257 0 004.714-.857l1.286-.429-1.357-.142c-.358-.072-.715-.072-1.072-.143 3.857-1.286 5.857-5.5 5.929-5.643l.357-.786-.643.286zm-11.5 7.786c-1.071-.643-1.714-1-2.286-1s-1.143.285-2.285 1c-1.643-.93-1.786-3.93-1-5.358.127.274.223.562.285.858.208-.584.446-1.156.715-1.715.5-.928.642-1.143.642-1.143.572-.857 2.643-.857 3.143 0 .267.35.484.734.643 1.143.294.547.533 1.121.714 1.715.072-.286.215-.572.286-.858.857 1.5.714 4.5-.857 5.358zm-6.643-6.93c-.928-.213-1.357-.928-1.857-1.356 1.143.143 2.929.571 3.286.928a1.329 1.329 0 01-1.429.429zm7.286-.428c.357-.357 2.143-.785 3.286-.928a3.93 3.93 0 01-1.858 1.357 1.372 1.372 0 01-1.428-.429zm3.928 5.5c-.285.072-.928.143-.857.143.072.143.429.143 1.715.572-1.252.362-2.56.484-3.858.357.162-.317.282-.653.358-1 .089-.178.138-.373.142-.572 1-.142 2-.357 3-.5a1.556 1.556 0 01-.357-.285 4.354 4.354 0 01-.428-.286 10.507 10.507 0 005-5.786c-2.286-.357-3.215-1.143-3.572-2.785a4.835 4.835 0 00-4.428 1.285c-.072-.357-.072-.643-.143-1-1.072 1.715-1.357 2-2.072 2.143a16.945 16.945 0 01-1.214-4.714c-.357 1.643-.5 3.214-1.214 4.714-.643-.143-.929-.428-2.072-2.143a5.603 5.603 0 00-.142 1 4.708 4.708 0 00-4.429-1.285c-.357 1.642-1.286 2.428-3.571 2.785a10.714 10.714 0 005 5.786c-.126.12-.27.216-.429.286-.143.071-.214.071-.357.143.928.142 1.786.642 2.714.857.072.143.357.214.357.428.076.348.196.684.357 1a10.266 10.266 0 01-3.857-.357c1.215-.143 1.215-.286 1.215-.5 0-.071 0-.286-.358-.357-3.357-.429-5.5-3.357-6.357-4.857.857.357 1.286.643 1.429.5.143-.143-.286-.429-.5-.714-.714-1-1.214-3.572-1.357-4.786.79.335 1.665.41 2.5.214 1.143-.357 2.071-1.357 2.714-3 .071 0 .143.072.214.072l.215-.43a.607.607 0 000-.5 11.556 11.556 0 01-.786-3.785c.017-.384.064-.766.143-1.143.805.352 1.516.89 2.071 1.572.289.374.599.732.929 1.071a.986.986 0 001.643-.357c.071-.214-.143-.428-.286-.643a.071.071 0 01-.072-.071c.786-.286 2.643-.929 4.215-.572h.357a7.358 7.358 0 014.214.572h-.357c-.143.214-.357.5-.286.643a.979.979 0 001.643.357c.289-.375.599-.732.929-1.072a5.308 5.308 0 012.071-1.571c.079.376.126.759.143 1.143a9.999 9.999 0 01-.786 3.786.607.607 0 000 .5l.215.428c.071 0 .142-.071.214-.071.643 1.643 1.571 2.643 2.714 3a3.486 3.486 0 002.5-.215 15.716 15.716 0 01-1.357 4.643c-.214.357-.571.715-.5.786s.5-.071 1.286-.429c-.786 1.429-2.857 4.5-6.215 5z"
  />
  <path
    fill="#FFF"
    d="M18.86 18.934c.355 0 .643-.095.643-.214 0-.118-.288-.214-.643-.214-.355 0-.643.096-.643.214 0 .119.288.214.643.214z"
  />
  <path
    fill="#4A4797"
    d="M13.86 19.79l2 2.43a10.285 10.285 0 011.643 3c.643 2.07 1.071 1.428 1.428 4.428l-.071 3.5-4.429-.286s-.571-.285-3.714-7.285c-.214-.5-1-5.286-1-5.286l3.143-.429h1v-.071z"
  />
  <path
    fill="#1E1E40"
    d="M13.932 19.506c-.072.286-.072.5-.143.786l1.786 2.214.428.643a7.587 7.587 0 011.143 2.285c.214.715.572 1.429.857 2.286.143.357.643 1.214.786 1.714.143-.214.143-.857.286-1.071-.072-.214-.429-.571-.5-.786a22.952 22.952 0 01-.857-2.214 9.056 9.056 0 00-1.215-2.5 5 5 0 01-.428-.643l-2.143-2.571v-.143z"
  />
  <path
    fill="#2E2C55"
    d="M38.075 29.005c.071-2.5-.714-2.857-2.572-4.428-1.714-1.429-5.357-2.214-5.357-2.214 0-.43.286-2.572.357-2.93.5-1.785.286-1.928.286-1.928a25.64 25.64 0 00-5.071.643 42.07 42.07 0 01-4.643.5l.428 2.215h-1.785l.071 4.428-1 5.429s-.286 3.928-1.214 2.357c-.857-1.429-.857-1.214-1.5-2.357-1.643-2.572-1-1.357-3.572-5.357-.428-.643 1.858-1.572 1.715-2.286l-.429-1.429.214-1.785-5.857-1 .143.642c.086.414.206.82.357 1.215.215.571.5 1.143.786 1.785l.214.429s-5.428-.071-7.428 3a10.393 10.393 0 00-1.5 2.786 8.071 8.071 0 00-.286 3.571l.714.714 21.572.358 15.143-.715c0 .072.142-1.857.214-3.643z"
  />
  <path
    fill="#1E1E40"
    d="M18.502 34.006l-18.5-.929c-.016-1.55.056-3.1.215-4.643a7.458 7.458 0 011.571-2.571c2.429-2.715 6-3.215 7.286-3.286a13.489 13.489 0 01-.786-1.786c-.143-.428-.214-.785-.357-1.214l-.214-1.143 6.57 1.143-.285 2.071.357 1.429c.143.571-.428 1-.928 1.429-.214.214-.714.571-.714.714.285.571 1.57 2.357 2.642 3.928l.929 1.358c.465.691.894 1.407 1.286 2.142.357.643.785-.214.785-.214l-.071-1.786 1-5.428.071-4.714h1.786l-.428-2.215h.428a41.267 41.267 0 004.5-.5c1.662-.4 3.363-.616 5.072-.643h.07l.072.072c.215.143.358.5-.142 2.286-.072.357-.286 1.928-.358 2.571.858.214 3.715.857 5.215 2.214 1.928 1.715 2.857 2.5 2.643 5.072-.286 4.643-.072 3.857-.072 3.857l-19.643.786zm1.643-12.786l-.071 4.071-.857 7.357 8.642-.071 8.572-.071 1.286-.143V29.22c.07-2.5-.715-2.857-2.5-4.357-1.643-1.357-5.143-2.143-5.143-2.143l-.215-.072v-.285c0-.5.286-2.643.358-3.072.135-.467.23-.945.285-1.428-1.588.064-3.167.279-4.714.643-1.42.24-2.85.406-4.286.5l.429 2.214h-1.786zM.788 32.79l11 .286c-.071-.143 6.786 1.286 4-2.214l-.929-1.357c-1.142-1.715-2.357-3.358-2.642-3.929-.286-.571.285-1.071.857-1.571.285-.215.785-.643.714-.786l-.429-1.572.143-1.571-5.071-.857.071.214c.072.357.215.786.286 1.143a9.15 9.15 0 00.786 1.714l.5.929h-.572c-.5 0-4.143.143-6.571 2.428a7.65 7.65 0 00-2 2.929 3.143 3.143 0 00-.143 1.143 18.193 18.193 0 000 3.071z"
  />
  <path
    fill="#1E1E40"
    d="M11.432 24.148a.264.264 0 01-.215-.071 2.635 2.635 0 00-2-.929.385.385 0 01-.357-.357.336.336 0 01.357-.357 3.571 3.571 0 012.429 1.072c.143.142.143.357 0 .428-.143.072-.143.214-.214.214zM6.789 33.22c-.215 0-.357-.143-.286-.357 0 0 .143-2.643.071-3.5 0-.143.072-.357.286-.357.214 0 .357.071.357.285a26.895 26.895 0 01-.071 3.643.471.471 0 01-.357.286zm25.071 0a.771.771 0 01-.5-.214c-.5-.429-.643-1.643-.428-3.358 0-.142.214-.285.357-.285s.285.214.285.357c-.214 2.071.072 2.643.215 2.786.143.142.071.071.143.071s.357.071.357.214c0 .143-.072.357-.286.357-.071.072-.071.072-.143.072zm-8.786-7.5a.265.265 0 01-.214-.072c-.143-.142-.143-.357 0-.428 3.643-3.286 7.214-3.143 7.357-3.143a.324.324 0 01-.071.643 10.65 10.65 0 00-6.929 2.928c0 .072-.071.072-.143.072z"
  />
  <path
    fill="#1E1E40"
    d="M22.648 24.005c-.143 0-.285-.071-.285-.214a.322.322 0 01.214-.429 18.78 18.78 0 017.428-1.285.323.323 0 11-.071.643 20.142 20.142 0 00-7.143 1.214.221.221 0 01-.143.071z"
  />
</svg>
